<svg width="14" height="16" viewBox="0 0 14 16" fill="none" xmlns="http://www.w3.org/2000/svg">
  <path opacity="0.5" fill-rule="evenodd" clip-rule="evenodd" d="M4.15812 1.81442C3.7676 1.42389 3.13443 1.42389 2.74391 1.81442C2.35338 2.20494 2.35338 2.83811 2.74391 3.22863L6.51527 7L2.74391 10.7714C2.35338 11.1619 2.35338 11.7951 2.74391 12.1856C3.13443 12.5761 3.7676 12.5761 4.15812 12.1856L7.92948 8.41421L11.7008 12.1856C12.0914 12.5761 12.7245 12.5761 13.1151 12.1856C13.5056 11.7951 13.5056 11.1619 13.1151 10.7714L9.34369 7L13.1151 3.22863C13.5056 2.83811 13.5056 2.20494 13.1151 1.81442C12.7245 1.42389 12.0914 1.42389 11.7008 1.81442L7.92948 5.58579L4.15812 1.81442Z" fill="#C9C9C9"/>
</svg>
